#!OML:ASF F:\VICON\USERDATA\Patient Classification 1\PLAYGROUND\JustinFriday\JustinFriday.ASF
:FULLY-SPECIFIED
:DEGREES
4386
root 28.6437 28.0879 -3.81157 -35.8994 -8.64862 -7.62072
lowerback 36.1672 0.508629 4.81077
upperback 14.5961 2.22971 1.82978
thorax -1.90717 1.19909 -1.32334
lowerneck -4.2486 -7.94375 -13.0306
upperneck 14.9998 -10.7312 7.96203
head 6.39118 -5.41966 3.84205
rclavicle -2.56432e-014 -4.37326e-015
rhumerus 47.2223 -13.6991 -58.6197
rradius 112.072
rwrist 12.0022
rhand -34.1372 -19.7153
rfingers 7.12502
rthumb -7.31201 -49.569
lclavicle -2.56432e-014 -4.37326e-015
lhumerus 45.1413 30.1542 50.41
lradius 99.726
lwrist -2.97026
lhand -25.5087 -9.82639
lfingers 7.12502
lthumb 1.02027 20.1509
rfemur -32.1018 -1.80582 27.0525
rtibia 37.2839
rfoot 13.8347 -12.1122
rtoes 0.771711
lfemur -39.3226 9.43401 -1.45249
ltibia 52.5463
lfoot 12.1508 -8.38574
ltoes 2.9867
4387
root 28.6457 28.0857 -3.81247 -35.8365 -8.72567 -7.7232
lowerback 36.2766 0.498411 4.90206
upperback 14.5109 2.26226 1.92653
thorax -2.03364 1.21031 -1.28304
lowerneck -4.41213 -7.64659 -12.5108
upperneck 15.3963 -10.2713 7.31779
head 6.43305 -5.20941 3.59123
rclavicle -5.28767e-014 -5.96354e-015
rhumerus 47.3206 -13.6939 -58.6804
rradius 112.332
rwrist 11.0627
rhand -33.0824 -19.6017
rfingers 7.12502
rthumb -6.29373 -49.4882
lclavicle -5.28767e-014 -5.96354e-015
lhumerus 44.9495 30.2843 50.3972
lradius 99.8232
lwrist -2.90459
lhand -25.3845 -9.70645
lfingers 7.12502
lthumb 1.14019 20.2702
rfemur -32.3456 -1.90365 27.232
rtibia 37.254
rfoot 13.4675 -12.2804
rtoes 1.86296
lfemur -39.3582 9.47411 -1.33333
ltibia 52.4676
lfoot 12.2154 -7.99382
ltoes 4.69655
4388
root 28.6469 28.0972 -3.82812 -35.8087 -8.76323 -7.77873
lowerback 36.2489 0.577701 5.27142
upperback 15.1011 2.44973 1.82086
thorax -1.34712 1.35284 -1.63002
lowerneck -6.61545 -7.86003 -11.3427
upperneck 16.0932 -10.376 6.70709
head 6.95228 -5.18655 3.11247
rclavicle 1.08338e-014 -2.14687e-014
rhumerus 48.1487 -14.8595 -59.0108
rradius 112.537
rwrist 10.7395
rhand -32.7572 -19.619
rfingers 7.12502
rthumb -5.97983 -49.5146
lclavicle 1.08338e-014 -2.14687e-014
lhumerus 46.596 30.5173 51.2417
lradius 99.8833
lwrist -2.88704
lhand -25.2902 -9.51551
lfingers 7.12502
lthumb 1.23125 20.4607
rfemur -32.4658 -1.87261 27.2779
rtibia 37.1326
rfoot 12.4426 -13.3802
rtoes 6.98572
lfemur -39.3291 9.49797 -1.27748
ltibia 52.4369
lfoot 12.3096 -7.62603
ltoes 6.40461
4389
root 28.6479 28.0985 -3.82883 -35.8306 -8.73728 -7.7666
lowerback 36.1863 0.581896 5.41927
upperback 15.2785 2.48907 1.74827
thorax -1.11916 1.39357 -1.78937
lowerneck -7.1454 -7.8374 -10.8599
upperneck 16.5184 -10.3336 6.48053
head 7.13889 -5.14357 2.94549
rclavicle 1.83876e-014 -9.14409e-015
rhumerus 48.283 -15.1388 -58.9453
rradius 112.389
rwrist 11.7719
rhand -33.9424 -19.8632
rfingers 7.12502
rthumb -7.12398 -49.7233
lclavicle 1.83876e-014 -9.14409e-015
lhumerus 47.0205 30.5927 51.4064
lradius 100.05
lwrist -2.78552
lhand -25.2106 -9.39251
lfingers 7.12502
lthumb 1.30816 20.5832
rfemur -32.5094 -2.01885 27.3143
rtibia 36.9406
rfoot 12.292 -13.3803
rtoes 7.28291
lfemur -39.277 9.47474 -1.30718
ltibia 52.4992
lfoot 12.2024 -7.44237
ltoes 6.27792
4390
root 28.649 28.0876 -3.81684 -35.8562 -8.68087 -7.73401
lowerback 36.1354 0.494388 5.46614
upperback 15.4948 2.37683 1.68162
thorax -0.866767 1.35289 -1.84217
lowerneck -7.82064 -7.74235 -10.7557
upperneck 17.0025 -10.1624 6.42989
head 7.39071 -5.04477 2.90314
rclavicle 1.66979e-014 5.56597e-015
rhumerus 48.6966 -15.1414 -58.9421
rradius 112.131
rwrist 12.9902
rhand -35.1965 -20.2312
rfingers 7.12502
rthumb -8.33444 -50.0468
lclavicle 1.66979e-014 5.56597e-015
lhumerus 47.2492 31.0048 51.5076
lradius 100.221
lwrist -2.73329
lhand -24.9574 -9.35653
lfingers 7.12502
lthumb 1.55276 20.6176
rfemur -32.5322 -2.22084 27.3661
rtibia 36.7307
rfoot 12.8161 -12.7246
rtoes 4.67349
lfemur -39.3059 9.44401 -1.36178
ltibia 52.6736
lfoot 12.1237 -7.41945
ltoes 5.75962
4391
root 28.6498 28.0869 -3.81587 -35.8754 -8.58324 -7.70074
lowerback 36.1156 0.348621 5.15626
upperback 14.8533 2.13067 1.86479
thorax -1.59706 1.17597 -1.42787
lowerneck -5.38104 -7.12276 -11.5341
upperneck 16.8842 -9.46947 6.45396
head 6.90195 -4.81393 3.19664
rclavicle -4.67144e-015 1.03368e-014
rhumerus 48.0173 -13.8551 -58.619
rradius 112.115
rwrist 13.0206
rhand -35.2237 -20.1308
rfingers 7.12502
rthumb -8.36071 -49.9453
lclavicle -4.67144e-015 1.03368e-014
lhumerus 45.1743 30.9522 50.5649
lradius 100.433
lwrist -2.51154
lhand -24.8008 -9.36204
lfingers 7.12502
lthumb 1.70398 20.6109
rfemur -32.5659 -2.45768 27.3574
rtibia 36.5605
rfoot 12.9717 -12.5495
rtoes 3.9996
lfemur -39.3318 9.40978 -1.46343
ltibia 52.8968
lfoot 11.8779 -7.67839
ltoes 4.79975
